<?xml version="1.0" encoding="UTF-8"?><!DOCTYPE svg PUBLIC "-//W3C//DTD SVG 1.1//EN" "http://www.w3.org/Graphics/SVG/1.1/DTD/svg11.dtd"><svg xmlns="http://www.w3.org/2000/svg" xmlns:xlink="http://www.w3.org/1999/xlink" height="1555" viewBox="0 0 439 1555" width="439"><svg height="430.117" viewBox="0 0 431 431" width="430.117" x="4" y="4"><path id="LinkedIn" d="M430.117,261.543V420.56h-92.188V272.193c0-37.271-13.334-62.707-46.703-62.707 c-25.473,0-40.632,17.142-47.301,33.724c-2.432,5.928-3.058,14.179-3.058,22.477V420.56h-92.219c0,0,1.242-251.285,0-277.32h92.21 v39.309c-0.187,0.294-0.43,0.611-0.606,0.896h0.606v-0.896c12.251-18.869,34.13-45.824,83.102-45.824 C384.633,136.724,430.117,176.361,430.117,261.543z M52.183,9.558C20.635,9.558,0,30.251,0,57.463 c0,26.619,20.038,47.94,50.959,47.94h0.616c32.159,0,52.159-21.317,52.159-47.94C103.128,30.251,83.734,9.558,52.183,9.558z M5.477,420.56h92.184v-277.32H5.477V420.56z"/></svg><svg height="430.117" viewBox="0 0 431 431" width="430.117" x="4" y="439"><path id="Twitter__x28_alt_x29_" d="M381.384,198.639c24.157-1.993,40.543-12.975,46.849-27.876 c-8.714,5.353-35.764,11.189-50.703,5.631c-0.732-3.51-1.55-6.844-2.353-9.854c-11.383-41.798-50.357-75.472-91.194-71.404 c3.304-1.334,6.655-2.576,9.996-3.691c4.495-1.61,30.868-5.901,26.715-15.21c-3.5-8.188-35.722,6.188-41.789,8.067 c8.009-3.012,21.254-8.193,22.673-17.396c-12.27,1.683-24.315,7.484-33.622,15.919c3.36-3.617,5.909-8.025,6.45-12.769 C241.68,90.963,222.563,133.113,207.092,174c-12.148-11.773-22.915-21.044-32.574-26.192 c-27.097-14.531-59.496-29.692-110.355-48.572c-1.561,16.827,8.322,39.201,36.8,54.08c-6.17-0.826-17.453,1.017-26.477,3.178 c3.675,19.277,15.677,35.159,48.169,42.839c-14.849,0.98-22.523,4.359-29.478,11.642c6.763,13.407,23.266,29.186,52.953,25.947 c-33.006,14.226-13.458,40.571,13.399,36.642C113.713,320.887,41.479,317.409,0,277.828 c108.299,147.572,343.716,87.274,378.799-54.866c26.285,0.224,41.737-9.105,51.318-19.39 C414.973,206.142,393.023,203.486,381.384,198.639z"/></svg><svg height="430.114" viewBox="0 0 431 431" width="430.113" x="4" y="874"><path id="Facebook" d="M158.081,83.3c0,10.839,0,59.218,0,59.218h-43.385v72.412h43.385v215.183h89.122V214.936h59.805 c0,0,5.601-34.721,8.316-72.685c-7.784,0-67.784,0-67.784,0s0-42.127,0-49.511c0-7.4,9.717-17.354,19.321-17.354 c9.586,0,29.818,0,48.557,0c0-9.859,0-43.924,0-75.385c-25.016,0-53.476,0-66.021,0C155.878-0.004,158.081,72.48,158.081,83.3z"/></svg><svg height="25" viewBox="0 0 106 25" width="106" x="4" y="1309"><defs><style>.cls-1{fill:#cd5151;fill-rule:evenodd}</style></defs><path id="logo" class="cls-1" d="M25,38.487a12.3,12.3,0,0,1,12.448-12.5A12.9,12.9,0,0,1,46.776,29.3l-3.29,4.039a8.66,8.66,0,0,0-6.207-2.451c-3.8,0-6.818,3.418-6.818,7.6,0,4.419,2.985,7.665,7.191,7.665A8.227,8.227,0,0,0,42.57,44.7V41.249H37.313V36.657H47.624v10.5a15.256,15.256,0,0,1-10.141,3.833C30.088,50.985,25,45.7,25,38.487Zm29.981,0a12.618,12.618,0,1,1,12.584,12.5A12.384,12.384,0,0,1,54.982,38.487Zm19.775,0a7.285,7.285,0,0,0-7.191-7.6c-4.206,0-7.123,3.383-7.123,7.6a7.284,7.284,0,0,0,7.191,7.6C71.839,46.082,74.756,42.7,74.756,38.487ZM88.456,26.4h4.172V46.7H105.11v3.867H88.456V26.4Zm32.8-.172h3.867l10.447,24.341h-4.41l-2.408-5.835H117.522l-2.443,5.835h-4.273Zm5.969,14.742-4.1-9.667-4.07,9.667h8.174Zm10.92-14.57h4.511l5.664,17.919,5.834-17.988h3.528l5.834,17.988L169.178,26.4h4.375l-8.276,24.341h-3.6l-5.834-17.367-5.834,17.367h-3.595Zm92.974,12.574a2.1,2.1,0,0,1,2.077-2.18,2.159,2.159,0,0,1,1.545.56l-0.3.361a1.748,1.748,0,0,0-1.261-.482,1.639,1.639,0,0,0-1.574,1.74,1.617,1.617,0,0,0,1.639,1.753,1.931,1.931,0,0,0,1.2-.421V39.26h-1.261V38.833h1.71v1.681a2.482,2.482,0,0,1-1.663.645A2.055,2.055,0,0,1,231.116,38.977Zm5.167-2.108H236.8l1.473,3.632,1.479-3.632h0.5l-1.782,4.246h-0.413Zm5.19,2.108a2.114,2.114,0,1,1,2.108,2.181A2.119,2.119,0,0,1,241.473,38.977Zm3.741,0a1.664,1.664,0,0,0-1.633-1.74A1.745,1.745,0,1,0,245.214,38.977Zm1.875,1.79,2.682-3.47h-2.593V36.869h3.232v0.319l-2.687,3.47h2.687v0.428h-3.321V40.767Zm5.114-3.9h1.439a2.11,2.11,0,1,1,0,4.217H252.2V36.869Zm1.439,3.777a1.669,1.669,0,1,0,0-3.337h-0.971v3.337h0.971Zm4.054-3.777h0.468v4.217H257.7V36.869Zm3.8,2.548-1.722-2.548h0.568l1.4,2.108,1.409-2.108h0.543l-1.721,2.542v1.675H261.5V39.417Zm8.7,1.072a1.786,1.786,0,0,1-1.356.656,1.2,1.2,0,0,1-1.3-1.192,1.33,1.33,0,0,1,1-1.217,1.38,1.38,0,0,1-.414-0.939,1.017,1.017,0,0,1,1.094-1,0.968,0.968,0,0,1,1.006.964,1.2,1.2,0,0,1-.976,1.1l0.947,0.981a5.42,5.42,0,0,0,.5-0.94l0.385,0.181a5.845,5.845,0,0,1-.6,1.06l0.722,0.753-0.356.277Zm-0.284-.295-1.107-1.162a1.018,1.018,0,0,0-.793.916,0.8,0.8,0,0,0,.864.8A1.412,1.412,0,0,0,269.918,40.194Zm-0.125-2.422a0.567,0.567,0,0,0-.585-0.584,0.6,0.6,0,0,0-.628.621,1.122,1.122,0,0,0,.414.777A0.928,0.928,0,0,0,269.793,37.772Zm5.43,1.2a2.115,2.115,0,1,1,2.108,2.181A2.12,2.12,0,0,1,275.223,38.977Zm3.741,0a1.663,1.663,0,0,0-1.633-1.74A1.745,1.745,0,1,0,278.964,38.977Zm2.3-2.108h1.764a1.469,1.469,0,0,1,1.083.373,0.957,0.957,0,0,1,.266.687,1.018,1.018,0,0,1-.657.976,1.058,1.058,0,0,1,.888,1.029,1.265,1.265,0,0,1-1.5,1.151h-1.84V36.869Zm1.687,1.879a0.8,0.8,0,0,0,.952-0.765,0.756,0.756,0,0,0-.916-0.686h-1.261v1.452h1.225Zm0.165,1.909a0.845,0.845,0,0,0,1.018-.765c0-.457-0.378-0.723-1.1-0.723h-1.308v1.488h1.39Zm3.243-3.789h3V37.3h-2.527v1.44h2.261v0.434h-2.261v1.476h2.557v0.434h-3.025V36.869Zm4.789,0h1.781a1.62,1.62,0,0,1,1.178.421,1.187,1.187,0,0,1,.32.844,1.225,1.225,0,0,1-1.125,1.228l1.273,1.723H294l-1.2-1.638h-1.184v1.638h-0.467V36.869Zm1.74,2.15a0.925,0.925,0,0,0,1.065-.879,0.884,0.884,0,0,0-1.059-.832h-1.279v1.711h1.273Zm3.362-2.15h0.468v2.518l2.378-2.518h0.6l-1.775,1.843,1.852,2.373h-0.586L297.6,39.044l-0.882.91v1.133h-0.468V36.869Zm4.594,2.108a2.114,2.114,0,1,1,2.106,2.181A2.118,2.118,0,0,1,300.84,38.977Zm3.739,0a1.631,1.631,0,1,0-1.621,1.741A1.663,1.663,0,0,0,304.579,38.977Zm1.7-2.108h0.52l1.474,3.632,1.479-3.632h0.5l-1.781,4.246h-0.415Zm6.794,2.548-1.723-2.548h0.568l1.4,2.108,1.409-2.108h0.544l-1.722,2.542v1.675h-0.473V39.417Zm3.226-.44a2.136,2.136,0,0,1,3.7-1.5l-0.308.337a1.786,1.786,0,0,0-1.3-.578,1.747,1.747,0,0,0,0,3.482,1.784,1.784,0,0,0,1.337-.608l0.307,0.331a2.122,2.122,0,0,1-1.657.717A2.089,2.089,0,0,1,316.3,38.977Zm5.373-2.108h0.468v1.873h2.391V36.869H325v4.217h-0.468v-1.9H322.14v1.9h-0.468V36.869ZM231.3,46.5h0.467v3.777H234.1v0.44h-2.8V46.5Zm6.02-.03h0.438l1.888,4.246h-0.5L238.657,49.6H236.4l-0.491,1.114h-0.479Zm1.154,2.7-0.941-2.15-0.947,2.15h1.888Zm1.96-2.674h0.508l1.184,3.512,1.136-3.524h0.384l1.137,3.524,1.184-3.512h0.491l-1.479,4.246h-0.4l-1.137-3.421L242.3,50.744h-0.39Zm10.291,0H253.7v0.44h-2.509v1.506h2.244v0.434h-2.244v1.837h-0.468V46.5Zm4.748,0h0.468v4.216h-0.468V46.5Zm2.506,0h1.782a1.618,1.618,0,0,1,1.177.421,1.187,1.187,0,0,1,.32.844,1.224,1.224,0,0,1-1.125,1.228l1.273,1.723h-0.574l-1.2-1.638h-1.183v1.638h-0.468V46.5Zm1.74,2.15a0.925,0.925,0,0,0,1.066-.879,0.885,0.885,0,0,0-1.06-.831h-1.278v1.711h1.272Zm3.362-2.15h0.474l1.509,2.3,1.509-2.3h0.473v4.216h-0.467V47.3l-1.509,2.259h-0.024L263.537,47.3v3.41h-0.456V46.5Z" transform="translate(-219 -26)"/></svg><svg height="96.827" viewBox="0 0 97 97" width="96.828" x="4" y="1338"><path d="M62.617,0H39.525c-10.29,0-17.413,2.256-23.824,7.552c-5.042,4.35-8.051,10.672-8.051,16.912 c0,9.614,7.33,19.831,20.913,19.831c1.306,0,2.752-0.134,4.028-0.253l-0.188,0.457c-0.546,1.308-1.063,2.542-1.063,4.468 c0,3.75,1.809,6.063,3.558,8.298l0.22,0.283l-0.391,0.027c-5.609,0.384-16.049,1.1-23.675,5.787 c-9.007,5.355-9.707,13.145-9.707,15.404c0,8.988,8.376,18.06,27.09,18.06c21.76,0,33.146-12.005,33.146-23.863 c0.002-8.771-5.141-13.101-10.6-17.698l-4.605-3.582c-1.423-1.179-3.195-2.646-3.195-5.364c0-2.672,1.772-4.436,3.336-5.992 l0.163-0.165c4.973-3.917,10.609-8.358,10.609-17.964c0-9.658-6.035-14.649-8.937-17.048h7.663c0.094,0,0.188-0.026,0.266-0.077 l6.601-4.15c0.188-0.119,0.276-0.348,0.214-0.562C63.037,0.147,62.839,0,62.617,0z M34.614,91.535 c-13.264,0-22.176-6.195-22.176-15.416c0-6.021,3.645-10.396,10.824-12.997c5.749-1.935,13.17-2.031,13.244-2.031 c1.257,0,1.889,0,2.893,0.126c9.281,6.605,13.743,10.073,13.743,16.678C53.141,86.309,46.041,91.535,34.614,91.535z M34.489,40.756c-11.132,0-15.752-14.633-15.752-22.468c0-3.984,0.906-7.042,2.77-9.351c2.023-2.531,5.487-4.166,8.825-4.166 c10.221,0,15.873,13.738,15.873,23.233c0,1.498,0,6.055-3.148,9.22C40.94,39.337,37.497,40.756,34.489,40.756z"/><path d="M94.982,45.223H82.814V33.098c0-0.276-0.225-0.5-0.5-0.5H77.08c-0.276,0-0.5,0.224-0.5,0.5v12.125H64.473 c-0.276,0-0.5,0.224-0.5,0.5v5.304c0,0.275,0.224,0.5,0.5,0.5H76.58V63.73c0,0.275,0.224,0.5,0.5,0.5h5.234 c0.275,0,0.5-0.225,0.5-0.5V51.525h12.168c0.276,0,0.5-0.223,0.5-0.5v-5.302C95.482,45.446,95.259,45.223,94.982,45.223z"/></svg><svg height="90" viewBox="0 0 90 90" width="90" x="4" y="1439"><path id="YouTube__x28_alt_x29_" d="M90,26.958C90,19.525,83.979,13.5,76.55,13.5h-63.1C6.021,13.5,0,19.525,0,26.958v36.084 C0,70.475,6.021,76.5,13.45,76.5h63.1C83.979,76.5,90,70.475,90,63.042V26.958z M36,60.225V26.33l25.702,16.947L36,60.225z"/></svg><svg height="8.032" viewBox="0 0 5 9" width="5" x="4" y="1533"><defs><style>.cls-1{fill:#fff;fill-rule:evenodd}</style></defs><path id="arrow_" data-name="arrow" class="cls-1" d="M379.744,554.684l-0.754-.736,4.266-4.16,0.754,0.735Zm0-8.016-0.754.735,4.266,4.161,0.754-.736Z" transform="translate(-379 -546.656)"/></svg><svg height="4.719" viewBox="0 0 8 5" width="7.688" x="4" y="1546"><defs><style>.cls-1{fill:#014f7d;fill-rule:evenodd}</style></defs><path id="arrow" class="cls-1" d="M624.646,41.337l0.708-.707,4,4-0.708.707Zm7.708,0-0.708-.707-4,4,0.708,0.707Z" transform="translate(-624.656 -40.625)"/></svg></svg>