<svg xmlns="http://www.w3.org/2000/svg" width="106" height="25" viewBox="0 0 106 25"><defs><style>.cls-1{fill:#cd5151;fill-rule:evenodd}</style></defs><path id="logo" class="cls-1" d="M25,38.487a12.3,12.3,0,0,1,12.448-12.5A12.9,12.9,0,0,1,46.776,29.3l-3.29,4.039a8.66,8.66,0,0,0-6.207-2.451c-3.8,0-6.818,3.418-6.818,7.6,0,4.419,2.985,7.665,7.191,7.665A8.227,8.227,0,0,0,42.57,44.7V41.249H37.313V36.657H47.624v10.5a15.256,15.256,0,0,1-10.141,3.833C30.088,50.985,25,45.7,25,38.487Zm29.981,0a12.618,12.618,0,1,1,12.584,12.5A12.384,12.384,0,0,1,54.982,38.487Zm19.775,0a7.285,7.285,0,0,0-7.191-7.6c-4.206,0-7.123,3.383-7.123,7.6a7.284,7.284,0,0,0,7.191,7.6C71.839,46.082,74.756,42.7,74.756,38.487ZM88.456,26.4h4.172V46.7H105.11v3.867H88.456V26.4Zm32.8-.172h3.867l10.447,24.341h-4.41l-2.408-5.835H117.522l-2.443,5.835h-4.273Zm5.969,14.742-4.1-9.667-4.07,9.667h8.174Zm10.92-14.57h4.511l5.664,17.919,5.834-17.988h3.528l5.834,17.988L169.178,26.4h4.375l-8.276,24.341h-3.6l-5.834-17.367-5.834,17.367h-3.595Zm92.974,12.574a2.1,2.1,0,0,1,2.077-2.18,2.159,2.159,0,0,1,1.545.56l-0.3.361a1.748,1.748,0,0,0-1.261-.482,1.639,1.639,0,0,0-1.574,1.74,1.617,1.617,0,0,0,1.639,1.753,1.931,1.931,0,0,0,1.2-.421V39.26h-1.261V38.833h1.71v1.681a2.482,2.482,0,0,1-1.663.645A2.055,2.055,0,0,1,231.116,38.977Zm5.167-2.108H236.8l1.473,3.632,1.479-3.632h0.5l-1.782,4.246h-0.413Zm5.19,2.108a2.114,2.114,0,1,1,2.108,2.181A2.119,2.119,0,0,1,241.473,38.977Zm3.741,0a1.664,1.664,0,0,0-1.633-1.74A1.745,1.745,0,1,0,245.214,38.977Zm1.875,1.79,2.682-3.47h-2.593V36.869h3.232v0.319l-2.687,3.47h2.687v0.428h-3.321V40.767Zm5.114-3.9h1.439a2.11,2.11,0,1,1,0,4.217H252.2V36.869Zm1.439,3.777a1.669,1.669,0,1,0,0-3.337h-0.971v3.337h0.971Zm4.054-3.777h0.468v4.217H257.7V36.869Zm3.8,2.548-1.722-2.548h0.568l1.4,2.108,1.409-2.108h0.543l-1.721,2.542v1.675H261.5V39.417Zm8.7,1.072a1.786,1.786,0,0,1-1.356.656,1.2,1.2,0,0,1-1.3-1.192,1.33,1.33,0,0,1,1-1.217,1.38,1.38,0,0,1-.414-0.939,1.017,1.017,0,0,1,1.094-1,0.968,0.968,0,0,1,1.006.964,1.2,1.2,0,0,1-.976,1.1l0.947,0.981a5.42,5.42,0,0,0,.5-0.94l0.385,0.181a5.845,5.845,0,0,1-.6,1.06l0.722,0.753-0.356.277Zm-0.284-.295-1.107-1.162a1.018,1.018,0,0,0-.793.916,0.8,0.8,0,0,0,.864.8A1.412,1.412,0,0,0,269.918,40.194Zm-0.125-2.422a0.567,0.567,0,0,0-.585-0.584,0.6,0.6,0,0,0-.628.621,1.122,1.122,0,0,0,.414.777A0.928,0.928,0,0,0,269.793,37.772Zm5.43,1.2a2.115,2.115,0,1,1,2.108,2.181A2.12,2.12,0,0,1,275.223,38.977Zm3.741,0a1.663,1.663,0,0,0-1.633-1.74A1.745,1.745,0,1,0,278.964,38.977Zm2.3-2.108h1.764a1.469,1.469,0,0,1,1.083.373,0.957,0.957,0,0,1,.266.687,1.018,1.018,0,0,1-.657.976,1.058,1.058,0,0,1,.888,1.029,1.265,1.265,0,0,1-1.5,1.151h-1.84V36.869Zm1.687,1.879a0.8,0.8,0,0,0,.952-0.765,0.756,0.756,0,0,0-.916-0.686h-1.261v1.452h1.225Zm0.165,1.909a0.845,0.845,0,0,0,1.018-.765c0-.457-0.378-0.723-1.1-0.723h-1.308v1.488h1.39Zm3.243-3.789h3V37.3h-2.527v1.44h2.261v0.434h-2.261v1.476h2.557v0.434h-3.025V36.869Zm4.789,0h1.781a1.62,1.62,0,0,1,1.178.421,1.187,1.187,0,0,1,.32.844,1.225,1.225,0,0,1-1.125,1.228l1.273,1.723H294l-1.2-1.638h-1.184v1.638h-0.467V36.869Zm1.74,2.15a0.925,0.925,0,0,0,1.065-.879,0.884,0.884,0,0,0-1.059-.832h-1.279v1.711h1.273Zm3.362-2.15h0.468v2.518l2.378-2.518h0.6l-1.775,1.843,1.852,2.373h-0.586L297.6,39.044l-0.882.91v1.133h-0.468V36.869Zm4.594,2.108a2.114,2.114,0,1,1,2.106,2.181A2.118,2.118,0,0,1,300.84,38.977Zm3.739,0a1.631,1.631,0,1,0-1.621,1.741A1.663,1.663,0,0,0,304.579,38.977Zm1.7-2.108h0.52l1.474,3.632,1.479-3.632h0.5l-1.781,4.246h-0.415Zm6.794,2.548-1.723-2.548h0.568l1.4,2.108,1.409-2.108h0.544l-1.722,2.542v1.675h-0.473V39.417Zm3.226-.44a2.136,2.136,0,0,1,3.7-1.5l-0.308.337a1.786,1.786,0,0,0-1.3-.578,1.747,1.747,0,0,0,0,3.482,1.784,1.784,0,0,0,1.337-.608l0.307,0.331a2.122,2.122,0,0,1-1.657.717A2.089,2.089,0,0,1,316.3,38.977Zm5.373-2.108h0.468v1.873h2.391V36.869H325v4.217h-0.468v-1.9H322.14v1.9h-0.468V36.869ZM231.3,46.5h0.467v3.777H234.1v0.44h-2.8V46.5Zm6.02-.03h0.438l1.888,4.246h-0.5L238.657,49.6H236.4l-0.491,1.114h-0.479Zm1.154,2.7-0.941-2.15-0.947,2.15h1.888Zm1.96-2.674h0.508l1.184,3.512,1.136-3.524h0.384l1.137,3.524,1.184-3.512h0.491l-1.479,4.246h-0.4l-1.137-3.421L242.3,50.744h-0.39Zm10.291,0H253.7v0.44h-2.509v1.506h2.244v0.434h-2.244v1.837h-0.468V46.5Zm4.748,0h0.468v4.216h-0.468V46.5Zm2.506,0h1.782a1.618,1.618,0,0,1,1.177.421,1.187,1.187,0,0,1,.32.844,1.224,1.224,0,0,1-1.125,1.228l1.273,1.723h-0.574l-1.2-1.638h-1.183v1.638h-0.468V46.5Zm1.74,2.15a0.925,0.925,0,0,0,1.066-.879,0.885,0.885,0,0,0-1.06-.831h-1.278v1.711h1.272Zm3.362-2.15h0.474l1.509,2.3,1.509-2.3h0.473v4.216h-0.467V47.3l-1.509,2.259h-0.024L263.537,47.3v3.41h-0.456V46.5Z" transform="translate(-219 -26)"/></svg>